<?xml version="1.0" encoding="UTF-8" standalone="no"?>
<!-- Created with Inkscape (http://www.inkscape.org/) -->

<svg
   width="15.24mm"
   height="128.5mm"
   viewBox="0 0 15.24 128.5"
   version="1.1"
   id="svg46"
   inkscape:version="1.1.1 (3bf5ae0d25, 2021-09-20)"
   sodipodi:docname="Chords.svg"
   xmlns:inkscape="http://www.inkscape.org/namespaces/inkscape"
   xmlns:sodipodi="http://sodipodi.sourceforge.net/DTD/sodipodi-0.dtd"
   xmlns:xlink="http://www.w3.org/1999/xlink"
   xmlns="http://www.w3.org/2000/svg"
   xmlns:svg="http://www.w3.org/2000/svg">
  <sodipodi:namedview
     id="namedview48"
     pagecolor="#505050"
     bordercolor="#eeeeee"
     borderopacity="1"
     inkscape:pageshadow="0"
     inkscape:pageopacity="0"
     inkscape:pagecheckerboard="0"
     inkscape:document-units="mm"
     showgrid="false"
     inkscape:zoom="2.1971895"
     inkscape:cx="114.46441"
     inkscape:cy="378.89313"
     inkscape:window-width="1920"
     inkscape:window-height="1057"
     inkscape:window-x="-8"
     inkscape:window-y="-8"
     inkscape:window-maximized="1"
     inkscape:current-layer="layer1" />
  <defs
     id="defs43">
    <linearGradient
       inkscape:collect="always"
       id="linearGradient3834">
      <stop
         style="stop-color:#2a0049;stop-opacity:1"
         offset="0"
         id="stop3830" />
      <stop
         style="stop-color:#57379e;stop-opacity:1"
         offset="1"
         id="stop3832" />
    </linearGradient>
    <linearGradient
       id="linearGradient3788"
       inkscape:swatch="solid">
      <stop
         style="stop-color:#2a7fff;stop-opacity:1;"
         offset="0"
         id="stop3786" />
    </linearGradient>
    <linearGradient
       inkscape:collect="always"
       xlink:href="#linearGradient3834"
       id="linearGradient3836"
       x1="0"
       y1="0"
       x2="15.24"
       y2="128.5"
       gradientUnits="userSpaceOnUse" />
  </defs>
  <g
     inkscape:label="Layer 1"
     inkscape:groupmode="layer"
     id="layer1">
    <rect
       style="fill:url(#linearGradient3836);stroke-width:0.12;fill-opacity:1;stroke-miterlimit:4;stroke-dasharray:none"
       id="rect72"
       width="15.24"
       height="128.5"
       x="0"
       y="0" />
    <rect
       style="fill:#350156;fill-opacity:0;stroke:#56359c;stroke-width:0.301668;stroke-linejoin:round;stroke-miterlimit:4;stroke-dasharray:none;stroke-opacity:1"
       id="rect4244"
       width="11.24"
       height="54.831539"
       x="2"
       y="5.7605309"
       ry="1.0551325" />
    <rect
       style="fill:#3c166b;fill-opacity:1;stroke:none;stroke-width:0.1045;stroke-linejoin:round;stroke-miterlimit:4;stroke-dasharray:none;stroke-opacity:1"
       id="rect4244-2"
       width="11.24"
       height="54.831539"
       x="2"
       y="62.649235"
       ry="1.0551325" />
    <g
       aria-label="Mc14"
       transform="scale(0.95558416,1.0464803)"
       id="text11082"
       style="font-size:3.57587px;line-height:1.25;fill:#838ec2;stroke-width:0.0893969">
      <path
         d="m 2.8221717,114.09471 q 0.00698,0.0541 0.010476,0.1135 0.00349,0.0594 0.00349,0.15714 v 1.24492 H 2.5742353 v -1.84556 h 0.2514284 l 0.8974596,1.20127 0.8363485,-1.20127 h 0.2828569 v 1.84556 H 4.5594718 v -1.24492 q 0,-0.0245 0.00524,-0.12222 0.00698,-0.0995 0.00873,-0.14842 -0.034921,0.0716 -0.062857,0.12048 -0.02619,0.0489 -0.047143,0.0786 l -0.7053962,1.02667 H 3.6794725 L 2.9461398,114.3217 q -0.00175,-0.002 -0.00873,-0.0122 -0.080317,-0.11 -0.115238,-0.21477 z"
         style="font-family:'BankGothic Lt BT';-inkscape-font-specification:'BankGothic Lt BT'"
         id="path9191" />
      <path
         d="M 6.9829618,114.31995 H 5.9248675 v 1.06159 h 1.0580943 v -0.36143 l 0.286349,0.0541 v 0.17809 q 0,0.20778 -0.078571,0.28286 -0.076825,0.0751 -0.2933331,0.0751 H 6.0069309 q -0.2165078,0 -0.2933331,-0.0716 -0.075079,-0.0733 -0.075079,-0.28635 v -0.79793 q 0,-0.21127 0.076825,-0.28461 0.076825,-0.0751 0.2915871,-0.0751 h 0.8904754 q 0.2165078,0 0.2933331,0.0768 0.078571,0.0751 0.078571,0.28286 v 0.14317 l -0.286349,0.0471 z"
         style="font-family:'BankGothic Lt BT';-inkscape-font-specification:'BankGothic Lt BT'"
         id="path9193" />
      <path
         d="m 8.7831189,115.61027 v -1.55572 h -0.401587 v -0.18507 l 0.6844439,-0.11873 v 1.85952 z"
         style="font-family:'BankGothic Lt BT';-inkscape-font-specification:'BankGothic Lt BT'"
         id="path9195" />
      <path
         d="m 11.946926,114.94154 v -0.97603 l -1.072062,0.97603 z m 0,0.66873 v -0.44 h -1.396824 v -0.22873 l 1.330475,-1.19778 h 0.349206 v 1.19778 h 0.42254 v 0.22873 h -0.42254 v 0.44 z"
         style="font-family:'BankGothic Lt BT';-inkscape-font-specification:'BankGothic Lt BT'"
         id="path9197" />
    </g>
    <g
       aria-label="Chords"
       transform="scale(0.95558416,1.0464803)"
       id="text14224"
       style="font-size:3.57587px;line-height:1.25;fill:#6e6a9b;stroke-width:0.0893969">
      <path
         d="M 2.578217,116.21325 H 1.2983768 v 1.33746 H 2.578217 v -0.4627 l 0.3090474,0.0646 v 0.21826 q 0,0.25492 -0.089048,0.34571 -0.089047,0.0908 -0.3404759,0.0908 H 1.424091 q -0.2514284,0 -0.342222,-0.0908 -0.0907935,-0.0925 -0.0907935,-0.34571 v -0.97254 q 0,-0.25318 0.0907935,-0.34397 0.090794,-0.0925 0.342222,-0.0925 h 1.0336499 q 0.2514284,0 0.3404759,0.0908 0.089048,0.0908 0.089048,0.34572 v 0.1746 l -0.3090474,0.0576 z"
         style="font-family:'BankGothic Lt BT';-inkscape-font-specification:'BankGothic Lt BT'"
         id="path9200" />
      <path
         d="m 3.5699621,117.80737 v -1.51206 h 0.286349 v 0.60762 H 5.064564 v -0.60762 h 0.286349 v 1.51206 H 5.064564 v -0.67571 H 3.8563111 v 0.67571 z"
         style="font-family:'BankGothic Lt BT';-inkscape-font-specification:'BankGothic Lt BT'"
         id="path9202" />
      <path
         d="m 6.3007536,117.57864 h 1.2658719 v -1.06158 H 6.3007536 Z m -0.286349,-0.92714 q 0,-0.20778 0.078571,-0.28286 0.078571,-0.0768 0.293333,-0.0768 H 7.48107 q 0.2147618,0 0.2933331,0.0768 0.078571,0.0751 0.078571,0.28286 v 0.79794 q 0,0.20777 -0.078571,0.28285 -0.076825,0.0751 -0.2933331,0.0751 H 6.386309 q -0.2182537,0 -0.2950791,-0.0733 -0.076825,-0.0751 -0.076825,-0.2846 z"
         style="font-family:'BankGothic Lt BT';-inkscape-font-specification:'BankGothic Lt BT'"
         id="path9204" />
      <path
         d="m 9.6112273,116.51356 h -0.806666 v 0.48889 h 0.806666 q 0.096032,0 0.1292063,-0.0314 0.033175,-0.0314 0.033175,-0.12222 v -0.18158 q 0,-0.0838 -0.034921,-0.11873 -0.034921,-0.0349 -0.1274603,-0.0349 z m -1.0930149,1.29381 v -1.51555 h 1.2187291 q 0.169365,0 0.2426982,0.0698 0.075079,0.0681 0.075079,0.22349 v 0.33873 q 0,0.15365 -0.075079,0.22175 -0.073333,0.0681 -0.2426982,0.0681 H 9.536148 l 0.66873,0.59365 H 9.822497 L 9.2183705,117.21372 H 8.8045613 v 0.59365 z"
         style="font-family:'BankGothic Lt BT';-inkscape-font-specification:'BankGothic Lt BT'"
         id="path9206" />
      <path
         d="m 11.668051,116.51706 h -0.555238 v 1.06158 h 0.555238 q 0.370158,0 0.525555,-0.12397 0.157143,-0.12571 0.157143,-0.41206 0,-0.27936 -0.158889,-0.40159 -0.157143,-0.12396 -0.523809,-0.12396 z m 0.03143,-0.22524 q 0.216507,0 0.363174,0.0297 0.148412,0.0279 0.244444,0.0873 0.155397,0.0978 0.242698,0.26715 0.0873,0.16761 0.0873,0.37015 0,0.38238 -0.232222,0.5727 -0.232222,0.18857 -0.705396,0.18857 h -0.873016 v -1.51555 z"
         style="font-family:'BankGothic Lt BT';-inkscape-font-specification:'BankGothic Lt BT'"
         id="path9208" />
      <path
         d="M 14.653763,116.51706 H 13.59043 v 0.39285 h 0.972539 q 0.213016,0 0.289841,0.0751 0.07857,0.0733 0.07857,0.28286 v 0.18159 q 0,0.20952 -0.07682,0.2846 -0.07508,0.0733 -0.291587,0.0733 h -0.921904 q -0.216508,0 -0.295079,-0.0733 -0.07683,-0.0751 -0.07683,-0.2846 v -0.0419 l 0.261905,-0.0541 v 0.22523 h 1.14365 v -0.42603 h -0.976031 q -0.214762,0 -0.291587,-0.0733 -0.07682,-0.0751 -0.07682,-0.2846 v -0.14318 q 0,-0.20778 0.07682,-0.28286 0.07682,-0.0768 0.291587,-0.0768 h 0.843333 q 0.211269,0 0.291587,0.0733 0.08032,0.0733 0.08032,0.25841 v 0.0367 l -0.260158,0.0559 z"
         style="font-family:'BankGothic Lt BT';-inkscape-font-specification:'BankGothic Lt BT'"
         id="path9210" />
    </g>
    <g
       aria-label="1V/Oct"
       id="text1591"
       style="font-size:3.01472px;line-height:1.25;fill:#ffffff;stroke-width:0.0753681">
      <path
         d="M 3.9809067,19.535158 H 3.7394936 v -1.823847 q -0.027969,0.02797 -0.082434,0.06477 -0.052993,0.03533 -0.1207066,0.07066 -0.066241,0.03533 -0.141315,0.06624 -0.073602,0.03091 -0.1442591,0.04858 V 17.7172 q 0.07949,-0.02208 0.1678116,-0.05888 0.089794,-0.03827 0.1751717,-0.08391 0.08685,-0.0471 0.1633955,-0.09716 0.076546,-0.05152 0.1324828,-0.100098 h 0.091266 z"
         style="font-family:'Segoe UI';-inkscape-font-specification:'Segoe UI'"
         id="path9285" />
      <path
         d="M 6.3862057,17.424265 5.6045571,19.535158 H 5.3322314 L 4.5667751,17.424265 H 4.842045 l 0.5843964,1.6737 q 0.027969,0.08096 0.042689,0.186948 h 0.00589 q 0.011776,-0.08832 0.048577,-0.189892 l 0.5961727,-1.670756 z"
         style="font-family:'Segoe UI';-inkscape-font-specification:'Segoe UI'"
         id="path9287" />
      <path
         d="M 7.6094637,17.424265 6.5967062,19.885502 H 6.3714854 l 1.0098135,-2.461237 z"
         style="font-family:'Segoe UI';-inkscape-font-specification:'Segoe UI'"
         id="path9289" />
      <path
         d="m 8.714959,19.570487 q -0.4489696,0 -0.7198233,-0.295878 Q 7.725754,18.97873 7.725754,18.504736 q 0,-0.509323 0.2752698,-0.812561 0.2752698,-0.303238 0.7492639,-0.303238 0.4371933,0 0.7036309,0.294406 0.2679097,0.294406 0.2679097,0.769872 0,0.516683 -0.2737978,0.816978 -0.2737978,0.300294 -0.7330715,0.300294 z m 0.017664,-1.957802 q -0.332679,0 -0.5402354,0.239941 -0.2075564,0.239942 -0.2075564,0.63003 0,0.390088 0.2016682,0.628557 0.2031404,0.236997 0.5284593,0.236997 0.3473993,0 0.5475956,-0.226693 0.2001962,-0.226692 0.2001962,-0.634445 0,-0.418057 -0.1943081,-0.646222 -0.1943081,-0.228165 -0.5358194,-0.228165 z"
         style="font-family:'Segoe UI';-inkscape-font-specification:'Segoe UI'"
         id="path9291" />
      <path
         d="m 11.132035,19.465973 q -0.1737,0.104514 -0.412169,0.104514 -0.322375,0 -0.521099,-0.209029 -0.197252,-0.2105 -0.197252,-0.544651 0,-0.372424 0.213444,-0.597645 0.213445,-0.226693 0.569676,-0.226693 0.198725,0 0.350344,0.0736 v 0.247301 q -0.167812,-0.117762 -0.359176,-0.117762 -0.231109,0 -0.379784,0.166339 -0.147203,0.164868 -0.147203,0.434249 0,0.264966 0.138371,0.418057 0.139843,0.153092 0.373896,0.153092 0.197252,0 0.370952,-0.131011 z"
         style="font-family:'Segoe UI';-inkscape-font-specification:'Segoe UI'"
         id="path9293" />
      <path
         d="m 12.196313,19.520438 q -0.08538,0.04711 -0.225221,0.04711 -0.395977,0 -0.395977,-0.44161 v -0.89205 h -0.259077 v -0.206085 h 0.259077 V 17.65979 l 0.241414,-0.07802 v 0.446025 h 0.379784 v 0.206085 h -0.379784 v 0.849362 q 0,0.151619 0.05152,0.216388 0.05152,0.06477 0.170755,0.06477 0.09127,0 0.157508,-0.05005 z"
         style="font-family:'Segoe UI';-inkscape-font-specification:'Segoe UI'"
         id="path9295" />
    </g>
    <g
       aria-label="1V/Sem"
       id="text1591-1"
       style="font-size:3.01472px;line-height:1.25;fill:#ffffff;stroke-width:0.0753681">
      <path
         d="M 3.4477279,37.872456 H 3.2063148 v -1.823847 q -0.027969,0.02797 -0.082434,0.06477 -0.052993,0.03533 -0.1207066,0.07066 -0.066241,0.03533 -0.141315,0.06624 -0.073602,0.03091 -0.1442591,0.04858 v -0.244357 q 0.07949,-0.02208 0.1678116,-0.05888 0.089794,-0.03827 0.1751717,-0.08391 0.08685,-0.04711 0.1633955,-0.09715 0.076546,-0.05152 0.1324828,-0.100098 h 0.091266 z"
         style="font-family:'Segoe UI';-inkscape-font-specification:'Segoe UI'"
         id="path9272" />
      <path
         d="M 5.8530269,35.761563 5.0713783,37.872456 H 4.7990526 L 4.0335963,35.761563 h 0.2752699 l 0.5843963,1.673699 q 0.027969,0.08096 0.042689,0.186948 h 0.00589 q 0.011776,-0.08832 0.048577,-0.189892 l 0.5961727,-1.670755 z"
         style="font-family:'Segoe UI';-inkscape-font-specification:'Segoe UI'"
         id="path9274" />
      <path
         d="M 7.0762849,35.761563 6.0635274,38.222799 H 5.8383066 l 1.0098135,-2.461236 z"
         style="font-family:'Segoe UI';-inkscape-font-specification:'Segoe UI'"
         id="path9276" />
      <path
         d="m 7.23232,37.787078 v -0.291462 q 0.050049,0.04416 0.1192345,0.07949 0.070658,0.03533 0.1472032,0.06035 0.078018,0.02355 0.1560353,0.0368 0.078018,0.01325 0.144259,0.01325 0.2281649,0 0.3400392,-0.08391 0.1133464,-0.08538 0.1133464,-0.244357 0,-0.08538 -0.038273,-0.148675 -0.036801,-0.0633 -0.1030421,-0.114819 -0.066241,-0.05299 -0.1575074,-0.100098 -0.089794,-0.04858 -0.1943081,-0.10157 -0.1104024,-0.05594 -0.2060844,-0.113347 -0.095682,-0.05741 -0.1663395,-0.126594 -0.070658,-0.06919 -0.1118744,-0.156036 -0.039745,-0.08832 -0.039745,-0.206084 0,-0.144259 0.063297,-0.250245 0.063297,-0.107459 0.1663395,-0.176644 0.1030422,-0.06919 0.234053,-0.103042 0.1324828,-0.03386 0.2693817,-0.03386 0.3120706,0 0.4548577,0.07507 v 0.278214 q -0.186948,-0.129539 -0.4798822,-0.129539 -0.080962,0 -0.1619234,0.01766 -0.080962,0.01619 -0.1442591,0.05447 -0.063297,0.03827 -0.1030422,0.09863 -0.039745,0.06035 -0.039745,0.147204 0,0.08096 0.029441,0.139843 0.030913,0.05888 0.089794,0.107458 0.058881,0.04858 0.142787,0.09421 0.085378,0.04563 0.1957802,0.100098 0.1133464,0.05594 0.2149165,0.117762 0.1015702,0.06183 0.1781158,0.136899 0.076546,0.07507 0.1207066,0.16634 0.045633,0.09127 0.045633,0.209028 0,0.156036 -0.061825,0.264966 -0.060353,0.107458 -0.1648675,0.175172 -0.1030422,0.06771 -0.238469,0.09715 -0.1354269,0.03091 -0.2855741,0.03091 -0.050049,0 -0.1236506,-0.0088 -0.073602,-0.0074 -0.1501472,-0.02355 -0.076546,-0.01472 -0.1457311,-0.0368 -0.067713,-0.02355 -0.1089303,-0.05152 z"
         style="font-family:'Segoe UI';-inkscape-font-specification:'Segoe UI'"
         id="path9278" />
      <path
         d="M 10.111613,37.179129 H 9.0473347 q 0.00589,0.251717 0.1354268,0.388616 0.1295388,0.136899 0.3562316,0.136899 0.2546614,0 0.4681059,-0.167812 v 0.226693 q -0.1987242,0.144259 -0.5255151,0.144259 -0.3194308,0 -0.5019627,-0.204612 -0.1825318,-0.206084 -0.1825318,-0.578508 0,-0.351816 0.1987242,-0.57262 0.2001962,-0.222277 0.4960745,-0.222277 0.2958783,0 0.4578017,0.191364 0.1619232,0.191364 0.1619232,0.531403 z M 9.864312,36.974517 Q 9.86284,36.765488 9.7627418,36.649198 9.6641157,36.532907 9.487472,36.532907 q -0.1707556,0 -0.2899902,0.122179 -0.1192345,0.122178 -0.1472031,0.319431 z"
         style="font-family:'Segoe UI';-inkscape-font-specification:'Segoe UI'"
         id="path9280" />
      <path
         d="m 12.617011,37.872456 h -0.241413 v -0.865555 q 0,-0.250245 -0.07802,-0.362119 -0.07655,-0.111875 -0.259078,-0.111875 -0.154563,0 -0.263493,0.141315 -0.107458,0.141315 -0.107458,0.338567 v 0.859667 h -0.241414 v -0.894995 q 0,-0.444554 -0.342983,-0.444554 -0.158979,0 -0.262021,0.133955 -0.103043,0.132483 -0.103043,0.345927 v 0.859667 h -0.241413 v -1.50736 h 0.241413 v 0.238469 h 0.0059 q 0.160451,-0.273798 0.468105,-0.273798 0.154564,0 0.269382,0.08685 0.114819,0.08538 0.157507,0.22522 0.167812,-0.31207 0.500491,-0.31207 0.497547,0 0.497547,0.613837 z"
         style="font-family:'Segoe UI';-inkscape-font-specification:'Segoe UI'"
         id="path9282" />
    </g>
    <g
       aria-label="1V/Sem"
       id="text1591-1-9"
       style="font-size:3.01472px;line-height:1.25;fill:#ffffff;stroke-width:0.0753681">
      <path
         d="M 3.4872377,55.574047 H 3.2458246 V 53.7502 q -0.027969,0.02797 -0.082434,0.06477 -0.052993,0.03533 -0.1207065,0.07066 -0.066241,0.03533 -0.141315,0.06624 -0.073602,0.03091 -0.1442591,0.04858 v -0.244357 q 0.07949,-0.02208 0.1678116,-0.05888 0.089794,-0.03827 0.1751717,-0.08391 0.08685,-0.04711 0.1633955,-0.09715 0.076546,-0.05152 0.1324828,-0.100098 h 0.091266 z"
         style="font-family:'Segoe UI';-inkscape-font-specification:'Segoe UI'"
         id="path9240" />
      <path
         d="M 5.8925367,53.463154 5.1108881,55.574047 H 4.8385623 L 4.0731061,53.463154 h 0.2752698 l 0.5843964,1.6737 q 0.027969,0.08096 0.042689,0.186948 h 0.00589 q 0.011776,-0.08832 0.048577,-0.189892 L 5.626099,53.463154 Z"
         style="font-family:'Segoe UI';-inkscape-font-specification:'Segoe UI'"
         id="path9242" />
      <path
         d="M 7.1157947,53.463154 6.1030372,55.924391 H 5.8778164 l 1.0098134,-2.461237 z"
         style="font-family:'Segoe UI';-inkscape-font-specification:'Segoe UI'"
         id="path9244" />
      <path
         d="m 7.2718298,55.488669 v -0.291462 q 0.050049,0.04416 0.1192345,0.07949 0.070658,0.03533 0.1472031,0.06035 0.078018,0.02355 0.1560353,0.0368 0.078018,0.01325 0.1442591,0.01325 0.2281648,0 0.3400392,-0.08391 0.1133464,-0.08538 0.1133464,-0.244357 0,-0.08538 -0.038273,-0.148675 -0.036801,-0.0633 -0.1030422,-0.114818 -0.066241,-0.05299 -0.1575073,-0.100099 -0.089794,-0.04858 -0.1943081,-0.10157 -0.1104024,-0.05594 -0.2060844,-0.113346 -0.095682,-0.05741 -0.1663395,-0.126595 -0.070658,-0.06918 -0.1118744,-0.156035 -0.039745,-0.08832 -0.039745,-0.206084 0,-0.14426 0.063297,-0.250246 0.063297,-0.107458 0.1663395,-0.176644 0.1030422,-0.06918 0.234053,-0.103042 0.1324828,-0.03386 0.2693817,-0.03386 0.3120706,0 0.4548576,0.07507 v 0.278214 q -0.1869479,-0.129539 -0.4798821,-0.129539 -0.080962,0 -0.1619235,0.01767 -0.080962,0.01619 -0.144259,0.05447 -0.063297,0.03827 -0.1030422,0.09863 -0.039745,0.06035 -0.039745,0.147203 0,0.08096 0.029441,0.139843 0.030913,0.05888 0.089794,0.107458 0.058881,0.04858 0.142787,0.09421 0.085378,0.04563 0.1957802,0.100098 0.1133464,0.05594 0.2149165,0.117763 0.1015702,0.06182 0.1781158,0.136899 0.076546,0.07507 0.1207066,0.166339 0.045633,0.09127 0.045633,0.209029 0,0.156035 -0.061825,0.264965 -0.060353,0.107459 -0.1648675,0.175172 -0.1030422,0.06771 -0.2384691,0.09715 -0.1354268,0.03091 -0.285574,0.03091 -0.050049,0 -0.1236506,-0.0088 -0.073602,-0.0074 -0.1501472,-0.02355 -0.076546,-0.01472 -0.1457311,-0.0368 -0.067713,-0.02355 -0.1089303,-0.05152 z"
         style="font-family:'Segoe UI';-inkscape-font-specification:'Segoe UI'"
         id="path9246" />
      <path
         d="M 10.151123,54.88072 H 9.0868444 q 0.00589,0.251718 0.1354269,0.388617 0.1295388,0.136899 0.3562316,0.136899 0.2546614,0 0.4681061,-0.167812 v 0.226693 q -0.1987244,0.144259 -0.5255154,0.144259 -0.3194307,0 -0.5019626,-0.204613 -0.1825319,-0.206084 -0.1825319,-0.578508 0,-0.351815 0.1987242,-0.57262 0.2001963,-0.222277 0.4960746,-0.222277 0.2958782,0 0.4578017,0.191364 0.1619234,0.191364 0.1619234,0.531404 z M 9.9038218,54.676108 q -0.00147,-0.209028 -0.1015702,-0.325319 -0.098626,-0.11629 -0.2752698,-0.11629 -0.1707556,0 -0.2899902,0.122178 -0.1192345,0.122179 -0.1472031,0.319431 z"
         style="font-family:'Segoe UI';-inkscape-font-specification:'Segoe UI'"
         id="path9248" />
      <path
         d="m 12.65652,55.574047 h -0.241413 v -0.865554 q 0,-0.250246 -0.07802,-0.36212 -0.07655,-0.111874 -0.259078,-0.111874 -0.154563,0 -0.263493,0.141315 -0.107459,0.141315 -0.107459,0.338567 v 0.859666 h -0.241413 v -0.894995 q 0,-0.444553 -0.342983,-0.444553 -0.158979,0 -0.262022,0.133955 -0.103042,0.132482 -0.103042,0.345927 v 0.859666 h -0.241413 v -1.50736 H 10.7576 v 0.238469 h 0.0059 q 0.160452,-0.273798 0.468106,-0.273798 0.154563,0 0.269382,0.08685 0.114818,0.08538 0.157507,0.225221 0.167812,-0.312071 0.500491,-0.312071 0.497546,0 0.497546,0.613837 z"
         style="font-family:'Segoe UI';-inkscape-font-specification:'Segoe UI'"
         id="path9250" />
    </g>
    <g
       aria-label="Nax 1"
       id="text1591-1-9-1"
       style="font-size:3.01472px;line-height:1.25;fill:#ffffff;stroke-width:0.0753681">
      <path
         d="M 5.8449247,75.864647 H 5.5416862 l -1.086359,-1.682532 q -0.041217,-0.0633 -0.067713,-0.132483 h -0.00883 q 0.011776,0.06771 0.011776,0.289991 v 1.525024 H 4.1432566 v -2.110893 h 0.3209028 l 1.0569184,1.656035 q 0.066241,0.103042 0.085378,0.141315 h 0.00589 q -0.01472,-0.09127 -0.01472,-0.310598 v -1.486752 h 0.2473013 z"
         style="font-family:'Segoe UI';-inkscape-font-specification:'Segoe UI'"
         id="path9231" />
      <path
         d="M 7.4450225,75.864647 H 7.2036094 v -0.235525 h -0.00589 q -0.1575074,0.270854 -0.4636899,0.270854 -0.2252208,0 -0.3532875,-0.119235 -0.1265947,-0.119234 -0.1265947,-0.316487 0,-0.422473 0.4975466,-0.491658 l 0.4519136,-0.0633 q 0,-0.384201 -0.3105986,-0.384201 -0.2723258,0 -0.4916584,0.185476 v -0.247301 q 0.2222767,-0.141315 0.5122668,-0.141315 0.5314033,0 0.5314033,0.562316 z m -0.2414131,-0.762512 -0.3635917,0.05005 q -0.1678116,0.02355 -0.2531894,0.08391 -0.085378,0.05888 -0.085378,0.2105 0,0.110402 0.078018,0.18106 0.07949,0.06918 0.2105005,0.06918 0.1795878,0 0.2958783,-0.125122 0.1177625,-0.126595 0.1177625,-0.319431 z"
         style="font-family:'Segoe UI';-inkscape-font-specification:'Segoe UI'"
         id="path9233" />
      <path
         d="m 9.0009594,74.357287 -0.5063788,0.762512 0.4975466,0.744848 H 8.7109692 L 8.4150909,75.375933 Q 8.3871223,75.3303 8.3488495,75.261114 h -0.00589 q -0.00736,0.01325 -0.069185,0.114819 L 7.9720095,75.864647 H 7.6937956 l 0.5137389,-0.73896 -0.4916584,-0.7684 h 0.281158 l 0.2914622,0.515211 q 0.032385,0.05741 0.063297,0.117762 h 0.00589 l 0.37684,-0.632973 z"
         style="font-family:'Segoe UI';-inkscape-font-specification:'Segoe UI'"
         id="path9235" />
      <path
         d="M 10.930792,75.864647 H 10.689379 V 74.0408 q -0.02797,0.02797 -0.08243,0.06477 -0.05299,0.03533 -0.120706,0.07066 -0.06624,0.03533 -0.141315,0.06624 -0.0736,0.03091 -0.144259,0.04858 v -0.244358 q 0.07949,-0.02208 0.167811,-0.05888 0.08979,-0.03827 0.175172,-0.08391 0.08685,-0.04711 0.163396,-0.09715 0.07654,-0.05152 0.132482,-0.100098 h 0.09127 z"
         style="font-family:'Segoe UI';-inkscape-font-specification:'Segoe UI'"
         id="path9237" />
    </g>
    <g
       aria-label="Nax 2"
       id="text1591-1-9-1-7"
       style="font-size:3.01472px;line-height:1.25;fill:#ffffff;stroke-width:0.0753681">
      <path
         d="M 5.7738771,94.325844 H 5.4706387 L 4.3842796,92.643312 q -0.041217,-0.0633 -0.067713,-0.132483 h -0.00883 q 0.011776,0.06771 0.011776,0.28999 v 1.525025 H 4.072209 v -2.110893 h 0.3209028 l 1.0569184,1.656035 q 0.066241,0.103042 0.085378,0.141315 h 0.00589 q -0.01472,-0.09127 -0.01472,-0.310598 v -1.486752 h 0.2473012 z"
         style="font-family:'Segoe UI';-inkscape-font-specification:'Segoe UI'"
         id="path9222" />
      <path
         d="M 7.373975,94.325844 H 7.1325618 v -0.235525 h -0.00589 q -0.1575073,0.270854 -0.4636898,0.270854 -0.2252208,0 -0.3532875,-0.119235 -0.1265947,-0.119234 -0.1265947,-0.316487 0,-0.422473 0.4975466,-0.491658 l 0.4519135,-0.0633 q 0,-0.384201 -0.3105985,-0.384201 -0.2723258,0 -0.4916585,0.185476 V 92.92447 q 0.2222767,-0.141315 0.5122669,-0.141315 0.5314033,0 0.5314033,0.562316 z m -0.2414132,-0.762512 -0.3635917,0.05005 q -0.1678115,0.02355 -0.2531893,0.08391 -0.085378,0.05888 -0.085378,0.210501 0,0.110402 0.078018,0.18106 0.07949,0.06919 0.2105005,0.06919 0.1795878,0 0.2958782,-0.125122 0.1177625,-0.126595 0.1177625,-0.319431 z"
         style="font-family:'Segoe UI';-inkscape-font-specification:'Segoe UI'"
         id="path9224" />
      <path
         d="m 8.9299118,92.818484 -0.5063787,0.762512 0.4975465,0.744848 H 8.6399217 L 8.3440434,93.837129 q -0.027969,-0.04563 -0.066241,-0.114818 h -0.00589 q -0.00736,0.01325 -0.069185,0.114818 L 7.900962,94.325844 H 7.6227481 l 0.5137389,-0.73896 -0.4916584,-0.7684 h 0.2811579 l 0.2914622,0.515211 q 0.032385,0.05741 0.063297,0.117762 h 0.00589 l 0.37684,-0.632973 z"
         style="font-family:'Segoe UI';-inkscape-font-specification:'Segoe UI'"
         id="path9226" />
      <path
         d="m 10.930402,92.768435 q 0,-0.09715 -0.03091,-0.169284 -0.02944,-0.07213 -0.08243,-0.119234 -0.05152,-0.04858 -0.122179,-0.07213 -0.07066,-0.02355 -0.153091,-0.02355 -0.07066,0 -0.138371,0.01914 -0.06771,0.01914 -0.132483,0.05299 -0.0633,0.03386 -0.12365,0.08096 -0.05888,0.04711 -0.110403,0.104514 v -0.259077 q 0.10157,-0.09863 0.226693,-0.150148 0.126595,-0.05299 0.307655,-0.05299 0.129538,0 0.239941,0.03827 0.110402,0.0368 0.191364,0.10893 0.08096,0.07213 0.126595,0.178116 0.04711,0.105986 0.04711,0.242885 0,0.125123 -0.02944,0.226693 -0.02797,0.10157 -0.08685,0.191364 -0.05741,0.08979 -0.145731,0.172228 -0.08832,0.08243 -0.207556,0.167811 -0.148676,0.105987 -0.24583,0.18106 -0.09568,0.07507 -0.153091,0.141315 -0.05594,0.06477 -0.07949,0.131011 -0.02208,0.06477 -0.02208,0.150147 h 1.05103 v 0.216389 H 9.9544456 V 94.22133 q 0,-0.135427 0.029441,-0.238469 0.029441,-0.103043 0.097154,-0.195781 0.06771,-0.09274 0.176644,-0.185476 0.110402,-0.09274 0.269382,-0.209028 0.114818,-0.08243 0.191364,-0.157507 0.07802,-0.07507 0.125122,-0.150148 0.0471,-0.07507 0.06624,-0.151619 0.02061,-0.07802 0.02061,-0.164867 z"
         style="font-family:'Segoe UI';-inkscape-font-specification:'Segoe UI'"
         id="path9228" />
    </g>
    <g
       aria-label="Nax 3"
       id="text1591-1-9-1-7-8"
       style="font-size:3.01472px;line-height:1.25;fill:#ffffff;stroke-width:0.0753681">
      <path
         d="M 5.7557814,112.26239 H 5.4525429 l -1.086359,-1.68253 q -0.041217,-0.0633 -0.067713,-0.13248 h -0.00883 q 0.011776,0.0677 0.011776,0.28999 v 1.52502 H 4.0541133 v -2.11089 h 0.3209028 l 1.0569184,1.65603 q 0.066241,0.10304 0.085378,0.14132 h 0.00589 q -0.01472,-0.0913 -0.01472,-0.3106 v -1.48675 h 0.2473013 z"
         style="font-family:'Segoe UI';-inkscape-font-specification:'Segoe UI'"
         id="path9213" />
      <path
         d="M 7.3558792,112.26239 H 7.1144661 v -0.23552 h -0.00589 q -0.1575074,0.27085 -0.4636899,0.27085 -0.2252207,0 -0.3532874,-0.11924 -0.1265947,-0.11923 -0.1265947,-0.31648 0,-0.42248 0.4975465,-0.49166 l 0.4519136,-0.0633 q 0,-0.3842 -0.3105986,-0.3842 -0.2723258,0 -0.4916584,0.18548 v -0.2473 q 0.2222767,-0.14132 0.5122669,-0.14132 0.5314032,0 0.5314032,0.56232 z m -0.2414131,-0.76251 -0.3635917,0.05 q -0.1678116,0.0236 -0.2531894,0.0839 -0.085378,0.0589 -0.085378,0.2105 0,0.11041 0.078018,0.18106 0.07949,0.0692 0.2105004,0.0692 0.1795878,0 0.2958783,-0.12512 0.1177625,-0.1266 0.1177625,-0.31943 z"
         style="font-family:'Segoe UI';-inkscape-font-specification:'Segoe UI'"
         id="path9215" />
      <path
         d="m 8.9118161,110.75503 -0.5063788,0.76251 0.4975466,0.74485 h -0.281158 l -0.2958782,-0.48871 q -0.027969,-0.0456 -0.066241,-0.11482 h -0.00589 q -0.00736,0.0132 -0.069185,0.11482 l -0.3017664,0.48871 H 7.6046524 l 0.5137389,-0.73896 -0.4916585,-0.7684 h 0.281158 l 0.2914622,0.51521 q 0.032385,0.0574 0.063297,0.11776 h 0.00589 l 0.37684,-0.63297 z"
         style="font-family:'Segoe UI';-inkscape-font-specification:'Segoe UI'"
         id="path9217" />
      <path
         d="m 11.178744,111.66475 q 0,0.14278 -0.05447,0.26054 -0.05299,0.1163 -0.151619,0.2002 -0.09715,0.0824 -0.234053,0.12807 -0.136899,0.0456 -0.301767,0.0456 -0.301766,0 -0.4798817,-0.11482 v -0.25908 q 0.2134447,0.16782 0.4887147,0.16782 0.110402,0 0.198724,-0.028 0.08979,-0.028 0.153091,-0.081 0.06477,-0.053 0.09863,-0.12807 0.03533,-0.0751 0.03533,-0.16928 0,-0.41364 -0.588813,-0.41364 h -0.175171 v -0.20462 h 0.166339 q 0.521099,0 0.521099,-0.38861 0,-0.35918 -0.397448,-0.35918 -0.223749,0 -0.419529,0.15015 v -0.23405 q 0.201668,-0.12071 0.479882,-0.12071 0.132483,0 0.239941,0.0368 0.107459,0.0368 0.184004,0.10304 0.07655,0.0662 0.117763,0.15898 0.04269,0.0927 0.04269,0.20461 0,0.41659 -0.421001,0.53582 v 0.006 q 0.107458,0.0118 0.198724,0.053 0.09127,0.0398 0.157507,0.10452 0.06624,0.0648 0.103042,0.15309 0.03827,0.0869 0.03827,0.19284 z"
         style="font-family:'Segoe UI';-inkscape-font-specification:'Segoe UI'"
         id="path9219" />
    </g>
    <g
       aria-label="specifier"
       id="text1591-1-9-0"
       style="font-size:2.09405px;line-height:1.25;fill:#ffffff;stroke-width:0.0523512">
      <path
         d="m 3.7914867,58.035914 v -0.179958 q 0.137013,0.101226 0.3016332,0.101226 0.2208568,0 0.2208568,-0.147237 0,-0.04192 -0.019427,-0.07055 -0.018405,-0.02965 -0.051124,-0.05215 -0.031697,-0.02249 -0.075664,-0.03988 -0.042944,-0.0184 -0.093046,-0.03783 -0.069529,-0.02761 -0.1226982,-0.05521 -0.052147,-0.02863 -0.087934,-0.06339 -0.034765,-0.03579 -0.053169,-0.08078 -0.017382,-0.04499 -0.017382,-0.105316 0,-0.07362 0.033742,-0.129856 0.033742,-0.05726 0.089979,-0.09509 0.056237,-0.03885 0.1278107,-0.05828 0.072596,-0.01943 0.1492828,-0.01943 0.1359906,0 0.2433515,0.04703 v 0.169733 q -0.1155408,-0.07566 -0.2658461,-0.07566 -0.047034,0 -0.084866,0.01125 -0.037832,0.01022 -0.065439,0.02965 -0.026585,0.01943 -0.041922,0.04703 -0.014315,0.02658 -0.014315,0.0593 0,0.0409 0.014315,0.06851 0.015337,0.02761 0.043967,0.04908 0.02863,0.02147 0.069529,0.03885 0.040899,0.01738 0.093046,0.03783 0.069529,0.02658 0.1247433,0.05521 0.055214,0.02761 0.094069,0.06339 0.038854,0.03477 0.059304,0.08078 0.021472,0.04601 0.021472,0.109406 0,0.07771 -0.034764,0.134968 -0.033742,0.05726 -0.091001,0.09509 -0.057259,0.03783 -0.1319006,0.05624 -0.074641,0.0184 -0.1564402,0.0184 -0.1615527,0 -0.280161,-0.06237 z"
         style="font-family:'Segoe UI';-inkscape-font-specification:'Segoe UI'"
         id="path9253" />
      <path
         d="m 4.9151981,57.922418 h -0.00409 v 0.632918 H 4.7434205 v -1.528615 h 0.1676876 v 0.184047 h 0.00409 q 0.1237207,-0.208587 0.3619598,-0.208587 0.2024521,0 0.3159479,0.141103 0.1134959,0.140081 0.1134959,0.376275 0,0.262778 -0.1278107,0.421264 -0.1278106,0.157462 -0.3496899,0.157462 -0.2034746,0 -0.313903,-0.175867 z m -0.00409,-0.422287 v 0.146216 q 0,0.129856 0.083844,0.220857 0.084866,0.08998 0.2147219,0.08998 0.1523504,0 0.2382391,-0.116563 0.086911,-0.116563 0.086911,-0.324128 0,-0.174845 -0.080776,-0.274026 -0.080776,-0.09918 -0.2188118,-0.09918 -0.1462154,0 -0.2351717,0.102249 -0.088956,0.101226 -0.088956,0.254598 z"
         style="font-family:'Segoe UI';-inkscape-font-specification:'Segoe UI'"
         id="path9255" />
      <path
         d="M 6.8159982,57.592155 H 6.0767413 q 0.00409,0.174845 0.094069,0.269936 0.089979,0.09509 0.2474414,0.09509 0.17689,0 0.3251503,-0.116563 v 0.157463 q -0.1380355,0.100203 -0.3650272,0.100203 -0.2218793,0 -0.3486675,-0.142125 -0.1267882,-0.143148 -0.1267882,-0.401837 0,-0.244374 0.1380355,-0.397747 0.139058,-0.154395 0.3445776,-0.154395 0.2055195,0 0.3179929,0.132923 0.1124734,0.132923 0.1124734,0.369117 z M 6.6442207,57.45003 q -0.00102,-0.145193 -0.070551,-0.22597 -0.068507,-0.08078 -0.1912048,-0.08078 -0.1186083,0 -0.2014296,0.08487 -0.082821,0.08487 -0.1022485,0.22188 z"
         style="font-family:'Segoe UI';-inkscape-font-specification:'Segoe UI'"
         id="path9257" />
      <path
         d="m 7.7832693,58.025689 q -0.1206532,0.0726 -0.2862959,0.0726 -0.2239242,0 -0.3619598,-0.145193 -0.137013,-0.146215 -0.137013,-0.378319 0,-0.258689 0.1482604,-0.415129 0.1482604,-0.157463 0.3957018,-0.157463 0.1380355,0 0.2433515,0.05112 v 0.171778 q -0.1165633,-0.0818 -0.2494864,-0.0818 -0.1605302,0 -0.2638012,0.115541 -0.1022486,0.114518 -0.1022486,0.301633 0,0.184047 0.096114,0.290386 0.097136,0.106338 0.2597112,0.106338 0.1370131,0 0.2576663,-0.091 z"
         style="font-family:'Segoe UI';-inkscape-font-specification:'Segoe UI'"
         id="path9259" />
      <path
         d="m 8.1227344,56.760875 q -0.044989,0 -0.076686,-0.03067 -0.031697,-0.03068 -0.031697,-0.07771 0,-0.04703 0.031697,-0.07771 0.031697,-0.0317 0.076686,-0.0317 0.046012,0 0.077709,0.0317 0.03272,0.03068 0.03272,0.07771 0,0.04499 -0.03272,0.07669 -0.031697,0.0317 -0.077709,0.0317 z m 0.081799,1.312871 H 8.0368457 v -1.047025 h 0.1676876 z"
         style="font-family:'Segoe UI';-inkscape-font-specification:'Segoe UI'"
         id="path9261" />
      <path
         d="m 9.0613758,56.670896 q -0.049079,-0.02761 -0.1114509,-0.02761 -0.1758675,0 -0.1758675,0.221879 v 0.161553 h 0.2453965 v 0.143148 H 8.7740574 v 0.903877 H 8.6073923 V 57.169869 H 8.4284574 v -0.143148 h 0.1789349 v -0.169733 q 0,-0.16462 0.095091,-0.259711 0.095091,-0.09611 0.2372166,-0.09611 0.076686,0 0.1216757,0.01841 z"
         style="font-family:'Segoe UI';-inkscape-font-specification:'Segoe UI'"
         id="path9263" />
      <path
         d="m 9.2853002,56.760875 q -0.044989,0 -0.076686,-0.03067 -0.031697,-0.03068 -0.031697,-0.07771 0,-0.04703 0.031697,-0.07771 0.031697,-0.0317 0.076686,-0.0317 0.046012,0 0.077709,0.0317 0.03272,0.03068 0.03272,0.07771 0,0.04499 -0.03272,0.07669 -0.031697,0.0317 -0.077709,0.0317 z m 0.081799,1.312871 H 9.1994114 V 57.026721 H 9.367099 Z"
         style="font-family:'Segoe UI';-inkscape-font-specification:'Segoe UI'"
         id="path9265" />
      <path
         d="M 10.54807,57.592155 H 9.808813 q 0.00409,0.174845 0.094069,0.269936 0.089979,0.09509 0.2474414,0.09509 0.17689,0 0.32515,-0.116563 v 0.157463 q -0.138035,0.100203 -0.365027,0.100203 -0.2218792,0 -0.3486674,-0.142125 -0.1267882,-0.143148 -0.1267882,-0.401837 0,-0.244374 0.1380356,-0.397747 0.139058,-0.154395 0.344578,-0.154395 0.205519,0 0.317992,0.132923 0.112474,0.132923 0.112474,0.369117 z M 10.376292,57.45003 q -0.001,-0.145193 -0.07055,-0.22597 -0.06851,-0.08078 -0.191205,-0.08078 -0.1186082,0 -0.2014295,0.08487 -0.082821,0.08487 -0.1022486,0.22188 z"
         style="font-family:'Segoe UI';-inkscape-font-specification:'Segoe UI'"
         id="path9267" />
      <path
         d="m 11.347653,57.196453 q -0.04397,-0.03374 -0.126788,-0.03374 -0.107361,0 -0.179957,0.101226 -0.07157,0.101226 -0.07157,0.276071 v 0.533738 h -0.167688 v -1.047025 h 0.167688 v 0.215744 h 0.0041 q 0.03579,-0.110428 0.109406,-0.171777 0.07362,-0.06237 0.16462,-0.06237 0.06544,0 0.100203,0.01431 z"
         style="font-family:'Segoe UI';-inkscape-font-specification:'Segoe UI'"
         id="path9269" />
    </g>
  </g>
  <g
     inkscape:groupmode="layer"
     id="layer2"
     inkscape:label="components"
     style="display:none">
    <circle
       style="fill:#00ff00;fill-opacity:1;stroke:none;stroke-width:0.106;stroke-linejoin:round;stroke-miterlimit:4;stroke-dasharray:none;stroke-opacity:1"
       id="in_SourceOctave"
       cx="7.6421304"
       cy="11.57726"
       r="4.1243501"
       inkscape:label="in_SourceOctave" />
    <circle
       style="fill:#00ff00;fill-opacity:1;stroke:none;stroke-width:0.106;stroke-linejoin:round;stroke-miterlimit:4;stroke-dasharray:none;stroke-opacity:1"
       id="in_SourceScale"
       cx="7.6421304"
       cy="30.097187"
       r="4.1243501"
       inkscape:label="in_SourceScale" />
    <circle
       style="fill:#00ff00;fill-opacity:1;stroke:none;stroke-width:0.106;stroke-linejoin:round;stroke-miterlimit:4;stroke-dasharray:none;stroke-opacity:1"
       id="in_SourceChord"
       cx="7.6421304"
       cy="47.893345"
       r="4.1243501"
       inkscape:label="in_SourceChord" />
    <circle
       style="fill:#0000ff;fill-opacity:1;stroke:none;stroke-width:0.106;stroke-linejoin:round;stroke-miterlimit:4;stroke-dasharray:none;stroke-opacity:1"
       id="out_FrequencyOne"
       cx="7.578269"
       cy="68.25"
       r="4.1243501"
       inkscape:label="out_FrequencyOne" />
    <circle
       style="fill:#0000ff;fill-opacity:1;stroke:none;stroke-width:0.106;stroke-linejoin:round;stroke-miterlimit:4;stroke-dasharray:none;stroke-opacity:1"
       id="out_FrequencyTwo"
       cx="7.578269"
       cy="86.769928"
       r="4.1243501"
       inkscape:label="out_FrequencyTwo" />
    <circle
       style="fill:#0000ff;fill-opacity:1;stroke:none;stroke-width:0.106;stroke-linejoin:round;stroke-miterlimit:4;stroke-dasharray:none;stroke-opacity:1"
       id="out_FrequencyThr"
       cx="7.578269"
       cy="104.56609"
       r="4.1243501"
       inkscape:label="out_FrequencyThr" />
  </g>
</svg>
